<?xml version='1.0' encoding='utf-8'?>
<!DOCTYPE svg>
<!-- Generator: Adobe Illustrator 12.0.0, SVG Export Plug-In . SVG Version: 6.00 Build 51448)  -->
<svg xmlns="http://www.w3.org/2000/svg" height="30.345" viewBox="0 0 144.22 30.345" width="144.22" gorn="0" id="LED_RGB_Strip" overflow="visible" enable-background="new -14.333 -4 144.22 30.345" xml:space="preserve"  version="1.1" xmlns:xml="http://www.w3.org/XML/1998/namespace">
    <desc >
        <referenceFile >Untitled Sketch 10_pcb.svg</referenceFile>
    </desc>
    <g  transform="translate(14.333,4)">
        <g >
            <g >
                <g gorn="0.1.0.0.0" id="silkscreen" >
                    <rect height="28.346" stroke-width="0.25" width="141.731" gorn="0.1.0.0.0.0" id="Strip_1_"  fill="none" x="-13.259" y="-2.92" stroke="#000000"/>
                </g>
                <g >
                    <g  transform="matrix(1, 0, 0, 1, 48.5176, 3.4256)">
                        <g >
                            <g >
                                <g gorn="0.1.0.0.1.0.0.0.0" id="copper0" >
                                    <g >
                                        <g gorn="0.1.0.0.1.0.0.0.0.0.0" id="copper1" >
                                            <path stroke-width="0.2" gorn="0.1.0.0.1.0.0.0.0.0.0.0" id="Connector_x5F_7" d="M73.319,18.233c0,1.306,1.178,2.363,2.627,2.363h4.063v-4.728h-4.063C74.497,15.868,73.319,16.927,73.319,18.233L73.319,18.233z"  fill="#E5AB6B" stroke="#6B6B6A"/>
                                            <circle stroke-width="0.9216" gorn="0.1.0.0.1.0.0.0.0.0.0.1" id="connector1pad" r="1.584"  fill="none" cx="75.701" cy="18.375" stroke="#FFBF00"/>
                                            <path stroke-width="0.2" gorn="0.1.0.0.1.0.0.0.0.0.0.2" id="Connector_x5F_6" d="M73.319,11.116c0,1.307,1.178,2.364,2.627,2.364h4.063V8.752h-4.063C74.497,8.755,73.319,9.814,73.319,11.116L73.319,11.116z"  fill="#E5AB6B" stroke="#6B6B6A"/>
                                            <circle stroke-width="0.9216" gorn="0.1.0.0.1.0.0.0.0.0.0.3" id="connector2pad" r="1.584"  fill="none" cx="75.701" cy="11.176" stroke="#FFBF00"/>
                                            <path stroke-width="0.2" gorn="0.1.0.0.1.0.0.0.0.0.0.4" id="Connector_x5F_5" d="M73.319,3.903c0,1.305,1.178,2.363,2.627,2.363h4.063V1.537h-4.063C74.497,1.537,73.319,2.596,73.319,3.903L73.319,3.903z"  fill="#E5AB6B" stroke="#6B6B6A"/>
                                            <circle stroke-width="0.9216" gorn="0.1.0.0.1.0.0.0.0.0.0.5" id="connector3pad" r="1.584"  fill="none" cx="75.701" cy="3.977" stroke="#FFBF00"/>
                                            <path stroke-width="0.2" gorn="0.1.0.0.1.0.0.0.0.0.0.6" id="Connector_x5F_4" d="M73.319-3.222c0,1.306,1.178,2.365,2.627,2.365h4.063v-4.729h-4.063C74.497-5.587,73.319-4.528,73.319-3.222L73.319-3.222z"  fill="#E5AB6B" stroke="#6B6B6A"/>
                                            <circle stroke-width="0.9216" gorn="0.1.0.0.1.0.0.0.0.0.0.7" id="connector0pad" r="1.584"  fill="none" cx="75.701" cy="-3.221" stroke="#FFBF00"/>
                                            <path stroke-width="0.2" gorn="0.1.0.0.1.0.0.0.0.0.0.8" id="Connector_x5F_3" d="M-54.968,18.357c0,1.307-1.178,2.364-2.625,2.364h-4.063v-4.729h4.063C-56.143,15.992-54.968,17.052-54.968,18.357L-54.968,18.357z"  fill="#E5AB6B" stroke="#6B6B6A"/>
                                            <circle stroke-width="0.9216" gorn="0.1.0.0.1.0.0.0.0.0.0.9" id="connector5pin" r="1.584"  fill="none" cx="-57.627" cy="18.375" stroke="#FFBF00"/>
                                            <path stroke-width="0.2" gorn="0.1.0.0.1.0.0.0.0.0.0.10" id="Connector_x5F_2" d="M-54.968,11.158c0,1.308-1.178,2.365-2.625,2.365h-4.063V8.795h4.063C-56.143,8.796-54.968,9.856-54.968,11.158L-54.968,11.158z"  fill="#E5AB6B" stroke="#6B6B6A"/>
                                            <circle stroke-width="0.9216" gorn="0.1.0.0.1.0.0.0.0.0.0.11" id="connector6pin" r="1.584"  fill="none" cx="-57.627" cy="11.176" stroke="#FFBF00"/>
                                            <path stroke-width="0.2" gorn="0.1.0.0.1.0.0.0.0.0.0.12" id="Connector_x5F_1" d="M-54.968,3.903c0,1.305-1.178,2.363-2.625,2.363h-4.063V1.537h4.063C-56.143,1.537-54.968,2.596-54.968,3.903L-54.968,3.903z"  fill="#E5AB6B" stroke="#6B6B6A"/>
                                            <circle stroke-width="0.9216" gorn="0.1.0.0.1.0.0.0.0.0.0.13" id="connector7pin" r="1.584"  fill="none" cx="-57.627" cy="3.977" stroke="#FFBF00"/>
                                            <path stroke-width="0.2" gorn="0.1.0.0.1.0.0.0.0.0.0.14" id="Connector_x5F_0" d="M-54.968-3.222c0,1.306-1.178,2.365-2.625,2.365h-4.063v-4.729h4.063C-56.143-5.587-54.968-4.528-54.968-3.222L-54.968-3.222z"  fill="#E5AB6B" stroke="#6B6B6A"/>
                                            <circle stroke-width="0.9216" gorn="0.1.0.0.1.0.0.0.0.0.0.15" id="connector4pin" r="1.584"  fill="none" cx="-57.627" cy="-3.221" stroke="#FFBF00"/>
                                        </g>
                                    </g>
                                </g>
                            </g>
                        </g>
                    </g>
                </g>
                <g >
                    <g  transform="matrix(1, 0, 0, 1, 48.5176, 3.4256)">
                        <g >
                            <g >
                                <g gorn="0.1.0.0.2.0.0.0.0" id="copper1_1_" >
                                    <g >
                                        <path stroke-width="0.2" gorn="0.1.0.0.2.0.0.0.0.0.0" id="connector15pin" d="M73.319,18.233c0,1.306,1.178,2.363,2.627,2.363h4.063v-4.728h-4.063C74.497,15.868,73.319,16.927,73.319,18.233L73.319,18.233z"  fill="#E5AB6B" stroke="#6B6B6A"/>
                                        <circle stroke-width="0.9216" gorn="0.1.0.0.2.0.0.0.0.0.1" id="connector1pad_1_" r="1.584"  fill="none" cx="75.701" cy="18.375" stroke="#FFBF00"/>
                                        <path stroke-width="0.2" gorn="0.1.0.0.2.0.0.0.0.0.2" id="connector14pin" d="M73.319,11.116c0,1.307,1.178,2.364,2.627,2.364h4.063V8.752h-4.063C74.497,8.755,73.319,9.814,73.319,11.116L73.319,11.116z"  fill="#E5AB6B" stroke="#6B6B6A"/>
                                        <circle stroke-width="0.9216" gorn="0.1.0.0.2.0.0.0.0.0.3" id="connector2pad_1_" r="1.584"  fill="none" cx="75.701" cy="11.176" stroke="#FFBF00"/>
                                        <path stroke-width="0.2" gorn="0.1.0.0.2.0.0.0.0.0.4" id="connector13pin" d="M73.319,3.903c0,1.305,1.178,2.363,2.627,2.363h4.063V1.537h-4.063C74.497,1.537,73.319,2.596,73.319,3.903L73.319,3.903z"  fill="#E5AB6B" stroke="#6B6B6A"/>
                                        <circle stroke-width="0.9216" gorn="0.1.0.0.2.0.0.0.0.0.5" id="connector3pad_1_" r="1.584"  fill="none" cx="75.701" cy="3.977" stroke="#FFBF00"/>
                                        <path stroke-width="0.2" gorn="0.1.0.0.2.0.0.0.0.0.6" id="connector12pin" d="M73.319-3.222c0,1.306,1.178,2.365,2.627,2.365h4.063v-4.729h-4.063C74.497-5.587,73.319-4.528,73.319-3.222L73.319-3.222z"  fill="#E5AB6B" stroke="#6B6B6A"/>
                                        <circle stroke-width="0.9216" gorn="0.1.0.0.2.0.0.0.0.0.7" id="connector0pad_1_" r="1.584"  fill="none" cx="75.701" cy="-3.221" stroke="#FFBF00"/>
                                        <path stroke-width="0.2" gorn="0.1.0.0.2.0.0.0.0.0.8" id="connector11pin" d="M-54.968,18.357c0,1.307-1.178,2.364-2.625,2.364h-4.063v-4.729h4.063C-56.143,15.992-54.968,17.052-54.968,18.357L-54.968,18.357z"  fill="#E5AB6B" stroke="#6B6B6A"/>
                                        <circle stroke-width="0.9216" gorn="0.1.0.0.2.0.0.0.0.0.9" id="connector5pin_1_" r="1.584"  fill="none" cx="-57.627" cy="18.375" stroke="#FFBF00"/>
                                        <path stroke-width="0.2" gorn="0.1.0.0.2.0.0.0.0.0.10" id="connector10pin" d="M-54.968,11.158c0,1.308-1.178,2.365-2.625,2.365h-4.063V8.795h4.063C-56.143,8.796-54.968,9.856-54.968,11.158L-54.968,11.158z"  fill="#E5AB6B" stroke="#6B6B6A"/>
                                        <circle stroke-width="0.9216" gorn="0.1.0.0.2.0.0.0.0.0.11" id="connector6pin_1_" r="1.584"  fill="none" cx="-57.627" cy="11.176" stroke="#FFBF00"/>
                                        <path stroke-width="0.2" gorn="0.1.0.0.2.0.0.0.0.0.12" id="connector9pin" d="M-54.968,3.903c0,1.305-1.178,2.363-2.625,2.363h-4.063V1.537h4.063C-56.143,1.537-54.968,2.596-54.968,3.903L-54.968,3.903z"  fill="#E5AB6B" stroke="#6B6B6A"/>
                                        <circle stroke-width="0.9216" gorn="0.1.0.0.2.0.0.0.0.0.13" id="connector7pin_1_" r="1.584"  fill="none" cx="-57.627" cy="3.977" stroke="#FFBF00"/>
                                        <path stroke-width="0.2" gorn="0.1.0.0.2.0.0.0.0.0.14" id="connector8pin" d="M-54.968-3.222c0,1.306-1.178,2.365-2.625,2.365h-4.063v-4.729h4.063C-56.143-5.587-54.968-4.528-54.968-3.222L-54.968-3.222z"  fill="#E5AB6B" stroke="#6B6B6A"/>
                                        <circle stroke-width="0.9216" gorn="0.1.0.0.2.0.0.0.0.0.15" id="connector4pin_1_" r="1.584"  fill="none" cx="-57.627" cy="-3.221" stroke="#FFBF00"/>
                                    </g>
                                </g>
                            </g>
                        </g>
                    </g>
                </g>
            </g>
        </g>
    </g>
</svg>
